<svg width="356" height="512" viewBox="0 0 356 512" fill="none" xmlns="http://www.w3.org/2000/svg">
<path d="M312.63 175.9C338.71 158.76 355.96 129.25 355.96 95.79C355.96 42.97 312.98 0 260.16 0H95.8C42.98 0 0 42.97 0 95.79C0 129.25 17.25 158.76 43.33 175.9C17.25 193.03 0 222.54 0 256C0 289.46 17.25 318.97 43.33 336.11C17.25 353.23 0 382.75 0 416.21C0 469.03 43.21 512 96.31 512C149.99 512 193.67 468.56 193.67 415.17V326.83C210.69 342.34 233.3 351.79 258.08 351.79H260.16C312.98 351.79 355.96 308.82 355.96 256C355.96 222.54 338.71 193.03 312.63 175.9ZM193.67 31.38H260.16C295.68 31.38 324.58 60.27 324.58 95.79C324.58 131.31 295.68 160.21 260.16 160.21H193.67V31.38ZM31.38 95.79C31.38 60.27 60.28 31.38 95.8 31.38H162.29V160.21H95.8C60.28 160.21 31.38 131.31 31.38 95.79ZM31.38 256C31.38 220.48 60.28 191.59 95.8 191.59H162.29V320.42H95.39C60.06 320.2 31.38 291.38 31.38 256ZM162.29 415.17C162.29 451.26 132.69 480.62 96.31 480.62C60.51 480.62 31.38 451.73 31.38 416.21C31.38 380.69 60.28 351.79 95.8 351.79H162.29V415.17ZM260.16 320.42H258.08C222.56 320.42 193.67 291.52 193.67 256C193.67 220.48 222.56 191.59 258.08 191.59H260.16C295.68 191.59 324.58 220.48 324.58 256C324.58 291.52 295.68 320.42 260.16 320.42Z" fill="black"/>
<path d="M95.8006 320.406C95.6606 320.406 95.5306 320.406 95.3906 320.416H162.291V320.406H95.8006Z" fill="black"/>
</svg>
