<svg width="691" height="528" viewBox="0 0 691 528" fill="none" xmlns="http://www.w3.org/2000/svg">
<g filter="url(#filter0_d_979_467)">
<path d="M666.667 400H646.667V60C646.667 26.9167 619.75 0 586.667 0H104C70.9167 0 44 26.9167 44 60V400H24C12.9531 400 4 408.953 4 420C4 475.141 48.8594 520 104 520H586.667C641.807 520 686.667 475.141 686.667 420C686.667 408.953 677.714 400 666.667 400ZM84 60C84 48.974 92.974 40 104 40H586.667C597.693 40 606.667 48.974 606.667 60V400H84V60ZM586.667 480H104C77.9219 480 55.6823 463.266 47.4271 439.984H643.24C634.984 463.266 612.745 480 586.667 480Z" fill="black"/>
<path d="M238.141 125.859C230.333 118.047 217.667 118.047 209.859 125.859L129.859 205.859C122.047 213.672 122.047 226.333 129.859 234.141L209.859 314.141C217.667 321.953 230.328 321.953 238.141 314.141C245.953 306.333 245.953 293.672 238.141 285.859L172.286 220L238.141 154.141C245.953 146.333 245.953 133.667 238.141 125.859Z" fill="black"/>
<path d="M480.809 125.859C473.001 118.047 460.335 118.047 452.527 125.859C444.715 133.672 444.715 146.333 452.527 154.141L518.382 220L452.527 285.859C444.715 293.672 444.715 306.333 452.527 314.141C460.335 321.953 472.996 321.953 480.809 314.141L560.809 234.141C568.621 226.333 568.621 213.672 560.809 205.859L480.809 125.859Z" fill="black"/>
<path d="M391.657 81.0225C381.183 77.5329 369.855 83.1944 366.36 93.6735L286.36 333.674C282.866 344.153 288.532 355.476 299.011 358.97C309.485 362.465 320.814 356.799 324.308 346.319L404.308 106.319C407.803 95.8402 402.136 84.5173 391.657 81.0225Z" fill="black"/>
</g>
<defs>
<filter id="filter0_d_979_467" x="0" y="0" width="690.668" height="528" filterUnits="userSpaceOnUse" color-interpolation-filters="sRGB">
<feFlood flood-opacity="0" result="BackgroundImageFix"/>
<feColorMatrix in="SourceAlpha" type="matrix" values="0 0 0 0 0 0 0 0 0 0 0 0 0 0 0 0 0 0 127 0" result="hardAlpha"/>
<feOffset dy="4"/>
<feGaussianBlur stdDeviation="2"/>
<feComposite in2="hardAlpha" operator="out"/>
<feColorMatrix type="matrix" values="0 0 0 0 0 0 0 0 0 0 0 0 0 0 0 0 0 0 0.25 0"/>
<feBlend mode="normal" in2="BackgroundImageFix" result="effect1_dropShadow_979_467"/>
<feBlend mode="normal" in="SourceGraphic" in2="effect1_dropShadow_979_467" result="shape"/>
</filter>
</defs>
</svg>
