<svg width="512" height="512" viewBox="0 0 512 512" fill="none" xmlns="http://www.w3.org/2000/svg">
<path d="M497 0H15C6.716 0 0 6.716 0 15V406.325C0 414.609 6.716 421.325 15 421.325H204.473C198.463 438.91 187.173 462.677 166.67 482H111.403C103.119 482 96.403 488.716 96.403 497C96.403 505.284 103.119 512 111.403 512H400.596C408.88 512 415.596 505.284 415.596 497C415.596 488.716 408.88 482 400.596 482H345.33C324.827 462.677 313.537 438.911 307.527 421.325H497C505.284 421.325 512 414.609 512 406.325V15C512 6.716 505.284 0 497 0ZM30 30H482V331.325H324.719V290.388L356.717 239.582C360.181 234.082 359.708 226.977 355.547 221.983L267.526 116.382C261.83 109.249 250.075 109.284 244.423 116.452L156.453 221.982C152.29 226.975 151.818 234.082 155.283 239.582L187.289 290.387V331.323H30V30ZM256.004 241.059C264.288 241.059 271.004 234.343 271.004 226.059V167.413L325.523 232.82L301.439 271.059H210.569L186.479 232.819L241.004 167.409V226.059C241.004 234.343 247.72 241.059 256.004 241.059ZM217.29 301.059H294.719V331.326H217.29V301.059ZM305.392 482H206.609C222.397 460.622 231.147 438.22 235.933 421.325H276.068C280.853 438.22 289.604 460.622 305.392 482ZM30 391.325V361.325H482V391.325H30Z" fill="black"/>
<path d="M256 85.6484C300.853 85.6484 337.766 97.5914 363.498 109.555C362.985 112.27 362.705 115.067 362.705 117.93C362.705 142.743 382.892 162.93 407.705 162.93C432.518 162.93 452.705 142.743 452.705 117.93C452.705 93.1174 432.518 72.9304 407.705 72.9304C396.663 72.9304 386.544 76.9344 378.705 83.5584C349.861 69.8014 307.643 55.6484 256 55.6484C204.36 55.6484 162.144 69.7994 133.301 83.5554C125.463 76.9334 115.345 72.9304 104.305 72.9304C79.4917 72.9304 59.3047 93.1174 59.3047 117.93C59.3047 142.743 79.4917 162.93 104.305 162.93C129.118 162.93 149.305 142.743 149.305 117.93C149.305 115.066 149.025 112.268 148.511 109.551C174.242 97.5894 211.152 85.6484 256 85.6484ZM422.704 117.931C422.704 126.202 415.975 132.931 407.704 132.931C399.433 132.931 392.704 126.202 392.704 117.931C392.704 109.66 399.433 102.931 407.704 102.931C415.975 102.931 422.704 109.659 422.704 117.931ZM104.305 132.931C96.0337 132.931 89.3047 126.202 89.3047 117.931C89.3047 109.66 96.0337 102.931 104.305 102.931C112.576 102.931 119.305 109.66 119.305 117.931C119.305 126.202 112.576 132.931 104.305 132.931Z" fill="black"/>
</svg>
