<svg width="512" height="512" viewBox="0 0 512 512" fill="none" xmlns="http://www.w3.org/2000/svg">
<path d="M467 0H45C20.187 0 0 20.187 0 45V467C0 491.813 20.187 512 45 512H467C491.813 512 512 491.813 512 467V45C512 20.187 491.813 0 467 0ZM30 45C30 36.729 36.729 30 45 30H121V120H30V45ZM482 467C482 475.271 475.271 482 467 482H45C36.729 482 30 475.271 30 467V150H482V467ZM482 120H151V30H467C475.271 30 482 36.729 482 45V120Z" fill="black"/>
<path d="M437 60H406C397.716 60 391 66.716 391 75C391 83.284 397.716 90 406 90H437C445.284 90 452 83.284 452 75C452 66.716 445.284 60 437 60Z" fill="black"/>
<path d="M346 60H316C307.716 60 301 66.716 301 75C301 83.284 307.716 90 316 90H346C354.284 90 361 83.284 361 75C361 66.716 354.284 60 346 60Z" fill="black"/>
<path d="M256 60H226C217.716 60 211 66.716 211 75C211 83.284 217.716 90 226 90H256C264.284 90 271 83.284 271 75C271 66.716 264.284 60 256 60Z" fill="black"/>
<path d="M391 364.58V346C391 321.187 370.813 301 346 301H271V268.42C288.459 262.228 301 245.555 301 226C301 201.187 280.813 181 256 181C231.187 181 211 201.187 211 226C211 245.555 223.541 262.228 241 268.42V301H166C141.187 301 121 321.187 121 346V364.58C103.541 370.772 91 387.445 91 407C91 431.813 111.187 452 136 452C160.813 452 181 431.813 181 407C181 387.445 168.459 370.772 151 364.58V346C151 337.729 157.729 331 166 331H241V364.58C223.541 370.772 211 387.445 211 407C211 431.813 231.187 452 256 452C280.813 452 301 431.813 301 407C301 387.445 288.459 370.772 271 364.58V331H346C354.271 331 361 337.729 361 346V364.58C343.541 370.772 331 387.445 331 407C331 431.813 351.187 452 376 452C400.813 452 421 431.813 421 407C421 387.445 408.459 370.772 391 364.58ZM136 422C127.729 422 121 415.271 121 407C121 398.729 127.729 392 136 392C144.271 392 151 398.729 151 407C151 415.271 144.271 422 136 422ZM256 422C247.729 422 241 415.271 241 407C241 398.729 247.729 392 256 392C264.271 392 271 398.729 271 407C271 415.271 264.271 422 256 422ZM256 241C247.729 241 241 234.271 241 226C241 217.729 247.729 211 256 211C264.271 211 271 217.729 271 226C271 234.271 264.271 241 256 241ZM376 422C367.729 422 361 415.271 361 407C361 398.729 367.729 392 376 392C384.271 392 391 398.729 391 407C391 415.271 384.271 422 376 422Z" fill="black"/>
</svg>
