<svg width="512" height="512" viewBox="0 0 512 512" fill="none" xmlns="http://www.w3.org/2000/svg">
<path d="M498.84 365.18L437.83 304.172C461.993 253.406 451.889 192.28 411.495 151.888C397.733 138.126 381.502 127.733 363.806 121.105V15C363.806 6.716 357.09 0 348.805 0H100.985C97.099 0 93.224 1.547 90.376 4.396C90.04 4.732 4.382 90.386 4.382 90.386C1.544 93.231 0 97.099 0 100.985V497C0 505.284 6.716 512 15.001 512H348.805C357.09 512 363.806 505.284 363.806 497V372.226C367.306 370.91 370.764 369.427 374.179 367.802L435.2 428.821C452.745 446.365 481.295 446.366 498.841 428.821C516.387 411.274 516.387 382.726 498.84 365.18ZM390.273 320.258C349.469 361.066 283.63 360.781 243.112 320.265C202.538 279.692 202.538 213.674 243.112 173.101C283.547 132.668 349.393 132.216 390.281 173.101C430.769 213.588 431.114 279.418 390.273 320.258ZM85.984 51.213V85.98H51.215C56.252 80.943 80.947 56.25 85.984 51.213ZM333.804 482H30.001V115.98H100.984C109.269 115.98 115.985 109.264 115.985 100.98V30H333.804V113.702C328.173 112.989 322.461 112.622 316.693 112.623C280.884 112.624 247.218 126.569 221.898 151.889C169.626 204.159 169.626 289.208 221.898 341.478C247.75 367.329 282.092 380.774 316.775 380.773C322.454 380.773 328.142 380.406 333.804 379.681V482ZM477.626 407.606C471.778 413.455 462.262 413.454 456.412 407.606L400.292 351.488C407.755 345.523 415.171 338.2 421.506 330.275L477.626 386.393C483.475 392.242 483.475 401.758 477.626 407.606Z" fill="black"/>
<path d="M329.251 255.269L300.28 226.299C294.426 220.444 284.922 220.442 279.066 226.299L238.574 266.79C232.715 272.648 232.715 282.145 238.574 288.003C244.431 293.861 253.93 293.862 259.788 288.003L289.673 258.119L318.644 287.089C324.498 292.944 334.002 292.946 339.858 287.089L396.577 230.372C402.436 224.514 402.436 215.017 396.577 209.159C390.719 203.301 381.221 203.301 375.363 209.159L329.251 255.269Z" fill="black"/>
<path d="M137.629 241H75.003C66.718 241 60.002 247.716 60.002 256C60.002 264.284 66.718 271 75.003 271H137.629C145.914 271 152.63 264.284 152.63 256C152.63 247.716 145.913 241 137.629 241Z" fill="black"/>
<path d="M137.629 301H75.003C66.718 301 60.002 307.716 60.002 316C60.002 324.284 66.718 331 75.003 331H137.629C145.914 331 152.63 324.284 152.63 316C152.63 307.716 145.913 301 137.629 301Z" fill="black"/>
<path d="M137.629 361H75.003C66.718 361 60.002 367.716 60.002 376C60.002 384.284 66.718 391 75.003 391H137.629C145.914 391 152.63 384.284 152.63 376C152.63 367.716 145.913 361 137.629 361Z" fill="black"/>
<path d="M137.629 181H75.003C66.718 181 60.002 187.716 60.002 196C60.002 204.284 66.718 211 75.003 211H137.629C145.914 211 152.63 204.284 152.63 196C152.63 187.716 145.913 181 137.629 181Z" fill="black"/>
</svg>
