<svg width="512" height="450" viewBox="0 0 512 450" fill="none" xmlns="http://www.w3.org/2000/svg">
<path d="M14.9492 209.988C14.9727 209.988 14.9922 209.992 15.0117 209.992C15.0195 209.992 15.0273 209.988 15.0352 209.988H255.965C255.973 209.988 255.98 209.992 255.988 209.992C256.008 209.992 256.027 209.988 256.051 209.988C264.012 209.965 270.816 203.578 270.984 195.32C270.984 195.215 271 195.109 271 195V15C271 6.75 264.277 0 256 0H15C6.76562 0 0 6.75781 0 15V195C0 195.109 0.015625 195.215 0.015625 195.32C0.1875 203.574 6.96484 209.957 14.9492 209.988ZM241 165.074L160.566 105L241 44.9258V165.074ZM210.852 180H60.1484L135.5 123.723L210.852 180ZM135.5 86.2773L60.1484 30H210.852L135.5 86.2773ZM110.434 105L30 165.074V44.9258L110.434 105Z" fill="black"/>
<path d="M497.328 240.016C497.219 240.016 497.109 240 497 240C437.801 240.004 256.844 239.992 255.668 240.016C247.395 240.211 241 247.012 241 255V435C241 435.109 241.016 435.215 241.016 435.32C241.188 443.598 247.973 449.957 255.949 449.988H256.012H256.035H496.965H496.988H497.051C505 449.965 511.812 443.594 511.984 435.32C511.984 435.215 512 435.109 512 435V255C512 254.891 511.984 254.785 511.984 254.68C511.82 246.766 505.473 240.207 497.328 240.016ZM271 284.926L351.434 345L271 405.074V284.926ZM301.148 270H451.852L376.5 326.277L301.148 270ZM376.5 363.723L451.852 420H301.148L376.5 363.723ZM401.566 345L482 284.926V405.074L401.566 345Z" fill="black"/>
<path d="M301 15V75C301 83.2852 307.715 90 316 90H376C384.285 90 391 83.2852 391 75V15C391 6.71484 384.285 0 376 0H316C307.715 0 301 6.71484 301 15ZM331 30H361V60H331V30Z" fill="black"/>
<path d="M497 0H436C427.715 0 421 6.71484 421 15V75C421 83.2852 427.715 90 436 90H497C505.285 90 512 83.2852 512 75V15C512 6.71484 505.285 0 497 0ZM482 60H451V30H482V60Z" fill="black"/>
<path d="M15 330H75C83.2852 330 90 323.285 90 315V255C90 246.715 83.2852 240 75 240H15C6.71484 240 0 246.715 0 255V315C0 323.285 6.71484 330 15 330ZM30 270H60V300H30V270Z" fill="black"/>
<path d="M136 240C127.715 240 121 246.715 121 255V315C121 323.285 127.715 330 136 330H196C204.285 330 211 323.285 211 315V255C211 246.715 204.285 240 196 240H136ZM181 300H151V270H181V300Z" fill="black"/>
<path d="M497 120H316C307.715 120 301 126.715 301 135C301 143.285 307.715 150 316 150H497C505.285 150 512 143.285 512 135C512 126.715 505.285 120 497 120Z" fill="black"/>
<path d="M497 180H316C307.715 180 301 186.715 301 195C301 203.285 307.715 210 316 210H497C505.285 210 512 203.285 512 195C512 186.715 505.285 180 497 180Z" fill="black"/>
<path d="M15 450H196C204.285 450 211 443.285 211 435C211 426.715 204.285 420 196 420H15C6.71484 420 0 426.715 0 435C0 443.285 6.71484 450 15 450Z" fill="black"/>
<path d="M15 390H196C204.285 390 211 383.285 211 375C211 366.715 204.285 360 196 360H15C6.71484 360 0 366.715 0 375C0 383.285 6.71484 390 15 390Z" fill="black"/>
</svg>
