<svg width="345" height="270" viewBox="0 0 345 270" fill="none" xmlns="http://www.w3.org/2000/svg">
<path d="M330.004 0C321.72 0 315.004 6.716 315.004 15V95.12C305.473 91.751 295.378 90 285.004 90C235.378 90 195.004 130.374 195.004 180C195.004 229.626 235.378 270 285.004 270C296.428 270 307.516 267.883 317.882 263.809C320.609 267.555 325.016 270 330.004 270C338.288 270 345.004 263.284 345.004 255V15C345.004 6.716 338.288 0 330.004 0ZM315.004 231.98C305.927 237.245 295.685 240.001 285.004 240.001C251.92 240 225.004 213.084 225.004 180C225.004 146.916 251.92 120 285.004 120C295.685 120 305.927 122.756 315.004 128.021V231.98Z" fill="black"/>
<path d="M107.691 135.002L177.722 22.9522C182.113 15.9272 179.977 6.67317 172.952 2.28217C165.926 -2.10883 156.673 0.0271749 152.282 7.05218L90.0022 106.7L27.7222 7.05218C23.3312 0.0271749 14.0772 -2.10783 7.05218 2.28217C0.0271749 6.67317 -2.10883 15.9272 2.28217 22.9522L72.3132 135.002L2.28217 247.052C-2.10883 254.077 0.0271749 263.331 7.05218 267.722C14.0642 272.104 23.3232 269.991 27.7222 262.952L90.0022 163.304L152.282 262.952C156.687 270 165.948 272.099 172.952 267.722C179.977 263.331 182.113 254.077 177.722 247.052L107.691 135.002Z" fill="black"/>
</svg>
